<?xml version="1.0" encoding="UTF-8"?><svg id="Layer_9" xmlns="http://www.w3.org/2000/svg" viewBox="0 0 25.83 25.95"><defs><style>.cls-1{fill:none;stroke:#08adc6;stroke-miterlimit:10;}</style></defs><path class="cls-1" d="m3.14.95C1.99.95,1.04,1.9,1.04,3.05v19.8c0,1.15.95,2.1,2.1,2.1h19.8c1.15,0,2.1-.95,2.1-2.1V3.05c0-1.15-.95-2.1-2.1-2.1H3.14Zm9.9,4.5c-.66,0-1.2.54-1.2,1.2s.54,1.2,1.2,1.2,1.2-.54,1.2-1.2-.54-1.2-1.2-1.2Zm0,3.58c-.5,0-.9.41-.89.91,0,0,0,0,0,0v9.6c0,.5.39.91.89.91.5,0,.91-.39.91-.89,0,0,0-.02,0-.03v-9.6c.01-.5-.38-.91-.88-.92,0,0-.02,0-.03,0Z"/></svg>