<?xml version="1.0" encoding="UTF-8"?><svg id="collections" xmlns="http://www.w3.org/2000/svg" viewBox="0 0 25.83 25.95"><defs><style>.cls-1{fill:none;stroke:#08adc6;stroke-miterlimit:10;}</style></defs><path class="cls-1" d="m24.49,1.45h-9.87c-.3,0-.55.25-.55.55v9.87c0,.3.25.55.55.55h9.87c.3,0,.55-.25.55-.55V2c0-.3-.25-.55-.55-.55Z"/><path class="cls-1" d="m11.47,1.45H1.59c-.3,0-.55.25-.55.55v9.87c0,.3.25.55.55.55h9.87c.3,0,.55-.25.55-.55V2c0-.3-.25-.55-.55-.55Z"/><path class="cls-1" d="m24.49,14.47h-9.87c-.3,0-.55.25-.55.55v9.87c0,.3.25.55.55.55h9.87c.3,0,.55-.25.55-.55v-9.87c0-.3-.25-.55-.55-.55Z"/><path class="cls-1" d="m11.47,14.47H1.59c-.3,0-.55.25-.55.55v9.87c0,.3.25.55.55.55h9.87c.3,0,.55-.25.55-.55v-9.87c0-.3-.25-.55-.55-.55Z"/></svg>