<?xml version="1.0" encoding="UTF-8"?><svg id="explore" xmlns="http://www.w3.org/2000/svg" viewBox="0 0 25.83 25.95"><defs><style>.cls-1{fill:none;stroke:#08adc6;stroke-miterlimit:10;}</style></defs><path class="cls-1" d="m13.04.5C6.42.5,1.04,5.88,1.04,12.5s5.38,12,12,12,12-5.38,12-12S19.66.5,13.04.5Z"/><path class="cls-1" d="m16.53,6.41l-6.04,2.4c-.51.2-.91.61-1.11,1.11l-2.4,6.04c-.3.76-.13,1.57.45,2.15.38.38.88.58,1.39.58.25,0,.51-.05.76-.15l6.04-2.4c.51-.2.91-.61,1.11-1.11l2.4-6.04c.3-.76.13-1.57-.45-2.15-.58-.56-1.39-.73-2.15-.43Z"/><circle class="cls-1" cx="13.04" cy="12.5" r="1.41"/></svg>