<?xml version="1.0" encoding="UTF-8" standalone="no"?>
<svg
   version="1.1"
   viewBox="0 0 169.1 169.1"
   id="svg34"
   sodipodi:docname="instagram.svgz"
   xmlns:inkscape="http://www.inkscape.org/namespaces/inkscape"
   xmlns:sodipodi="http://sodipodi.sourceforge.net/DTD/sodipodi-0.dtd"
   xmlns="http://www.w3.org/2000/svg"
   xmlns:svg="http://www.w3.org/2000/svg">
  <sodipodi:namedview
     id="namedview36"
     pagecolor="#ffffff"
     bordercolor="#000000"
     borderopacity="0.25"
     inkscape:showpageshadow="2"
     inkscape:pageopacity="0.0"
     inkscape:pagecheckerboard="0"
     inkscape:deskcolor="#d1d1d1" />
  <defs
     id="defs4">
    <style
       id="style2">
      .cls-1 {
        fill: #6a7074;
      }

      .cls-1, .cls-2 {
        stroke-width: 0px;
      }

      .cls-2 {
        fill: #a5a8a9;
      }

      .cls-3 {
        display: none;
      }
    </style>
  </defs>
  <g
     id="Layer_1"
     data-name="Layer 1">
    <path
       class="cls-1"
       d="M154.1,122.4c0,17.5-14.2,31.7-31.7,31.7H46.7c-17.5,0-31.7-14.2-31.7-31.7V46.7c0-17.5,14.2-31.7,31.7-31.7h75.8c17.5,0,31.7,14.2,31.7,31.7v75.8h0"
       id="path6" />
    <path
       class="cls-2"
       d="M122.2.5H46.9C21.3.5.5,21.3.5,46.9v75.3c0,25.6,20.8,46.4,46.4,46.4h75.3c25.6,0,46.4-20.8,46.4-46.4V46.9c0-25.6-20.8-46.4-46.4-46.4ZM153.6,122.2c0,17.3-14.1,31.5-31.5,31.5H46.9c-17.3,0-31.5-14.1-31.5-31.5V46.9c0-17.3,14.1-31.5,31.5-31.5h75.3c17.3,0,31.5,14.1,31.5,31.5v75.3h0Z"
       id="path8" />
    <path
       class="cls-2"
       d="M84.5,41c-24,0-43.6,19.5-43.6,43.6s19.5,43.6,43.6,43.6,43.6-19.5,43.6-43.6-19.5-43.6-43.6-43.6ZM84.5,113.1c-15.7,0-28.6-12.8-28.6-28.6s12.8-28.6,28.6-28.6,28.6,12.8,28.6,28.6c0,15.7-12.8,28.6-28.6,28.6Z"
       id="path10" />
    <path
       class="cls-2"
       d="M129.9,28.3c-2.9,0-5.7,1.2-7.8,3.2-2.1,2-3.2,4.9-3.2,7.8s1.2,5.7,3.2,7.8c2,2,4.9,3.2,7.8,3.2s5.7-1.2,7.8-3.2c2.1-2,3.2-4.9,3.2-7.8s-1.2-5.7-3.2-7.8c-2-2-4.9-3.2-7.8-3.2Z"
       id="path12" />
    <path
       class="cls-1"
       d="M84.5,113.1c-15.7,0-28.6-12.8-28.6-28.6s12.8-28.6,28.6-28.6,28.6,12.8,28.6,28.6c0,15.7-12.8,28.6-28.6,28.6Z"
       id="path14" />
  </g>
  <g
     id="Layer_2"
     data-name="Layer 2"
     class="cls-3">
    <rect
       class="cls-1"
       x=".8"
       y=".3"
       width="168"
       height="168"
       rx="26.3"
       ry="26.3"
       id="rect17" />
    <g
       id="g25">
      <path
         class="cls-2"
         d="M122.5,120.2l-29.5-42.9-3.3-4.8-21.1-30.7-1.7-2.5h-25.9l6.3,9.2,28.1,40.8,3.3,4.8,22.6,32.8,1.7,2.5h25.9l-6.3-9.2ZM106,123.5l-23.4-34-3.3-4.8-27.2-39.5h11.7l22,32,3.3,4.8,28.6,41.6h-11.7Z"
         id="path19" />
      <polygon
         class="cls-2"
         points="79.2 84.6 82.6 89.5 78.6 94.1 48.3 129.4 40.8 129.4 75.3 89.2 79.2 84.6"
         id="polygon21" />
      <polygon
         class="cls-2"
         points="125.7 39.2 93 77.3 89.1 81.9 85.7 77.1 89.7 72.5 111.8 46.7 118.3 39.2 125.7 39.2"
         id="polygon23" />
    </g>
  </g>
  <g
     id="Layer_4"
     data-name="Layer 4"
     class="cls-3">
    <rect
       class="cls-1"
       x=".5"
       y=".7"
       width="168"
       height="168"
       rx="26.3"
       ry="26.3"
       id="rect28" />
  </g>
  <g
     id="Layer_3"
     data-name="Layer 3"
     class="cls-3">
    <path
       class="cls-2"
       d="M87.4,168.6v-65.4h-18v-21h18v-15.5c0-17.9,11-27.7,27-27.7s14.3.6,16.2.8v18.8h-11c-8.7,0-10.4,4.1-10.4,10.2v13.4h20.8l-2.7,21h-18.1v62.2"
       id="path31" />
  </g>
</svg>
