<?xml version="1.0" encoding="UTF-8"?>
<svg id="Layer_1" data-name="Layer 1" xmlns="http://www.w3.org/2000/svg" version="1.1" viewBox="0 0 282.7 56.2">
  <defs>
    <style>
      .cls-1 {
        fill: none;
        stroke: #40464b;
        stroke-miterlimit: 10;
        stroke-width: 2.4px;
      }

      .cls-2 {
        fill: #da5226;
      }

      .cls-2, .cls-3 {
        stroke-width: 0px;
      }

      .cls-3 {
        fill: #40464b;
      }
    </style>
  </defs>
  <path class="cls-3" d="M157.7,21.1c0-1.8,0-3.6-.1-5.4s.5-1.4,1.3-1.4h0c.7,0,1.2.5,1.3,1.2l.2,4.4h.1c1.6-3.4,5.4-6.3,10.4-6.3s10.5,1.1,10.5,12.7v14.6c0,.7-.6,1.3-1.3,1.3h-.2c-.7,0-1.3-.6-1.3-1.3v-14.6c0-5.5-2.3-10.3-8.5-10.3-4.3,0-7.9,3.1-9.1,6.6-.2.6-.4,1.6-.4,2.5v15.8c0,.7-.6,1.3-1.3,1.3h-.2c-.7,0-1.3-.6-1.3-1.3v-19.9Z"/>
  <path class="cls-3" d="M194.5,6.1c0,1.3-.9,2.5-2.4,2.5s-2.2-1.2-2.2-2.5,1-2.5,2.3-2.5,2.2,1.2,2.2,2.5ZM190.9,40.9V15.7c0-.8.6-1.4,1.3-1.4h0c.8,0,1.4.6,1.4,1.4v25.2c0,.8-.6,1.4-1.3,1.4h0c-.8,0-1.4-.6-1.4-1.4Z"/>
  <path class="cls-3" d="M203.5,21.1c0-1.8,0-3.6-.1-5.4s.5-1.4,1.3-1.4h0c.7,0,1.2.5,1.3,1.2l.2,4.2h.1c2-3.5,4.8-6.1,9.7-6.1s7.3,3.1,8.5,6.6h.1c.8-1.7,1.8-3,2.8-3.9,2-1.7,4-2.7,7.3-2.7s9.6,1.4,9.6,13v14.3c0,.7-.6,1.3-1.3,1.3h-.2c-.7,0-1.3-.6-1.3-1.3v-14.2c0-7-2.9-10.6-7.9-10.6-3.8,0-6.7,2.8-7.8,5.7-.3.8-.6,1.7-.6,2.7v16.5c0,.7-.6,1.3-1.3,1.3h-.2c-.7,0-1.3-.6-1.3-1.3v-15.7c0-5.5-2.9-9.2-7.4-9.2s-7.2,3.4-8.3,6.5c-.3.8-.5,1.7-.5,2.7v15.7c0,.7-.6,1.3-1.3,1.3h-.2c-.7,0-1.3-.6-1.3-1.3v-19.9Z"/>
  <path class="cls-3" d="M271,42.2c-.6,0-1-.4-1.1-1l-.3-3.3h-.1c-1.4,2.2-4.8,5-9.7,5-6.1,0-8.6-4.3-8.6-7.7,0-6.3,5.6-10.5,18.2-10.3v-.6c0-2.1-.5-8.4-7.6-8.3-2.3,0-4.7.5-6.7,1.7s-1.3,0-1.5-.5h0c-.2-.5,0-1.1.4-1.4,2.7-1.6,5.7-2.2,8-2.2,9.1,0,10.1,7.3,10.1,11.7v10.1c0,1.9,0,3.7.3,5.5s-.4,1.2-1.1,1.2h-.3ZM269.4,27.3c-7.1-.2-15.3.9-15.3,7.4,0,4,2.7,5.9,5.9,5.9,5.2,0,8-3.2,9.1-5.7.2-.6.3-1.2.3-1.6v-5.9Z"/>
  <path class="cls-3" d="M16.6,6.3H4.9c-.7,0-1.2-.5-1.2-1.2h0c0-.6.5-1.2,1.2-1.2h28.5c.7,0,1.2.5,1.2,1.1h0c0,.6-.5,1.2-1.2,1.2h-11.7c-.7,0-1.2.5-1.2,1.2v33.9c0,.6-.5,1.2-1.2,1.2h-.4c-.7,0-1.2-.5-1.2-1.2V7.5c0-.6-.6-1.2-1.2-1.2Z"/>
  <path class="cls-3" d="M60.5,28.2c0,10.5-7.8,15-14.4,15-8,0-13.8-6.1-13.8-14.3s6.7-14.9,14.2-15c8.6,0,14.1,6.3,14.1,14.3ZM35,28.7c0,7.8,5.4,12.2,11.3,12.2,5.9,0,11.5-4.5,11.5-12.5s-3.4-12.1-11.3-12.1c-7.6,0-11.5,5.9-11.5,12.5Z"/>
  <path class="cls-3" d="M68.4,23.6c0-2.6,0-5.1-.2-7.6s.6-1.4,1.3-1.4h0c.7,0,1.3.6,1.3,1.3l.2,4.6h.1c2-3.8,5.7-6.5,11.3-6.5,7.9,0,12.9,6.5,13,14.1s-6.3,15.2-13.6,15.2-8.3-1.8-10.5-5.7h-.1s0,15.3,0,15.3c0,.7-.6,1.3-1.3,1.3h-.1c-.7,0-1.3-.6-1.3-1.3v-29.2ZM71.1,31.3c0,.8.1,1.5.3,2.2,1.1,4,5.1,7.4,10.1,7.4,6.8,0,11.1-5,11.1-12.8,0-6.3-4-11.9-10.8-11.8s-8.7,2.6-10.2,7.7c-.2.8-.5,1.7-.5,2.4v4.9Z"/>
  <path class="cls-2" d="M124.4,42.9c-4.4,1.7-9.2,1.7-13.5,0-4.3-1.8-7.7-5.2-9.4-9.5-1.7-4.3-1.5-8.9.4-13.2,1.9-4.2,5.5-7.6,9.8-9.3,4.4-1.8,9.2-1.7,13.6,0,4.3,1.8,7.7,5.2,9.4,9.5,1.7,4.3,1.5,9-.4,13.3-2,4.2-5.4,7.5-9.8,9.2Z"/>
  <path class="cls-3" d="M119.2,24.8c-2.9,1.1-4,5-3.1,7.8s4,4.6,6.9,4.4,1.5-.2,2.1-.4,1-.8.8-1.5-.9-1.1-1.5-.8-.8.2-1.2.3.2,0,0,0-.2,0-.3,0c-.2,0-.5,0-.7,0s-.2,0-.3,0-.3,0-.1,0c-.3,0-.6-.1-.8-.2s-.2,0-.3-.1c.2,0-.2,0-.2-.1-.1,0-.2-.1-.3-.2s-.4-.3-.3-.2c-.5-.4-.9-.9-1.2-1.4s-.1-.2-.2-.3c0,.2,0-.2,0-.2,0-.1,0-.3-.1-.4s0-.1,0-.2c0-.1,0,.1,0,0s0-.6,0-.9,0-.4,0-.2c0-.2,0-.4,0-.5.2-.7.3-1,.7-1.7s0-.1.1-.2c0,.1,0,0,0,0,.1-.1.2-.2.3-.3s.1-.1,0,0,0,0,.1,0c0,0,.1,0,.2,0,.2-.1-.2,0,0,0,.6-.2,1-.8.8-1.5s-.9-1.1-1.5-.8h0Z"/>
  <g>
    <path class="cls-3" d="M108.6,38.2c-.6.9-1.1,1.6-2.3,1.8s-2.2,0-3.4-.2-2.4.1-3.4.8c-1.6,1-2.8,3.3-2,5.2s2.3,2.1,3.9,1.9,3.4-.8,5-1.3,2.4-.2,3.7.5c3.7,1.9,6.9,4.6,11.1,5.4,9.9,1.8,19-5.5,23-14.1s2.9-8,2.5-12.1-.5-3.1-1.3-4.4-2.7-2.1-4.6-2.3-2.5-.2-3.3-1-1-2-.9-3.1c0,.5.1-.5.2-.6.2-.5.4-1,.7-1.4.9-1.2,2.2-1.5,3.6-1.7,2.6-.5,6.5-.9,8.4,1.6s0,6.1-3.1,6.7-.9,2.6.6,2.3c2.4-.4,4.5-2,5.3-4.3s.1-5.2-1.8-7-4.8-2.2-7.2-2-5,.6-6.8,2.1c-2.9,2.5-3.2,7.8.4,9.9s2.1.7,3.2.8,2,.1,2.8.7,1.3,2.3,1.5,3.5c.5,4.2-.9,8.7-2.8,12.4s-5.5,7.8-9.8,10-9.9,2.6-14.7,0-6.2-4.8-9.8-4.6-3.4,1.1-5.1,1.5-1.7.4-2.4,0-.2-1.7.3-2.2c1.1-1.1,2.4-.7,3.7-.5s2.4.1,3.6-.3,2.2-1.5,3-2.7-1.2-2.4-2-1.2h0Z"/>
    <path class="cls-1" d="M109.6,38.8c.5-.8,1-2-.5-4.9-2-3.8-2-3.9-2.3-4.5-.2-.5-1.8-3.9-.7-7.7.7-2.3,2.4-4.2,4.3-5.6,4.4-3.1,10.6-3.6,15-.8,4.4,2.8,6.7,8.9,4.9,14.1-.9,2.6-2.9,5-5.4,5.9-2.6.9-5.7.1-7.1-2.2-1.4-2.3-.6-6.1,1.9-7.3-2.4,1.3-3.3,5-1.9,7.3"/>
  </g>
</svg>