<?xml version="1.0" encoding="utf-8"?>
<!-- Generator: Adobe Illustrator 27.4.0, SVG Export Plug-In . SVG Version: 6.00 Build 0)  -->
<svg version="1.1" xmlns="http://www.w3.org/2000/svg" xmlns:xlink="http://www.w3.org/1999/xlink" x="0px" y="0px"
	 viewBox="0 0 28 28" style="enable-background:new 0 0 28 28;" xml:space="preserve">
<style type="text/css">
	.st0{fill:#FFFFFF;}
	.st1{display:none;}
	.st2{display:inline;fill-rule:evenodd;clip-rule:evenodd;fill:#FFFFFF;}
	.st3{display:inline;fill:#FFFFFF;}
	.st4{display:inline;fill-rule:evenodd;clip-rule:evenodd;fill:none;}
	.st5{display:inline;}
	.st6{fill-rule:evenodd;clip-rule:evenodd;fill:#FFFFFF;}
</style>
<g id="toponym">
	<g>
		<path class="st0" d="M9.1,4.9c0,0-0.1,0-0.1,0c-1.8,0-3.6,0-5.4,0c-0.3,0-0.7,0-1,0C2.3,4.9,2.1,5,1.9,5.2
			C1.8,5.4,1.7,5.6,1.7,5.8c0,2.7,0,5.5,0,8.2c0,0,0,0.1,0,0.1c0,0.3,0.1,0.6,0.4,0.7C2.3,15,2.5,15,2.7,15c5.5,0,11,0,16.4,0
			c0,0,0,0,0.1,0c0.2,0,0.4-0.1,0.6-0.2c0.4-0.3,0.9-0.6,1.3-1c1.4-1.1,2.8-2.1,4.2-3.2c0.1-0.1,0.1-0.1,0.2-0.2
			c0.2-0.3,0.2-1-0.2-1.3c-1.8-1.3-3.6-2.7-5.4-4.1c-0.2-0.2-0.5-0.3-0.8-0.3c-2.1,0-4.2,0-6.2,0c0,0-0.1,0-0.1,0c0,0,0-0.1,0-0.1
			c0-0.6,0-1.2,0-1.8c0-0.5-0.4-0.9-0.9-0.9c-0.6,0-1.3,0-1.9,0C9.4,2.1,9.1,2.5,9.1,3C9.1,3.6,9.1,4.2,9.1,4.9
			C9.1,4.8,9.1,4.8,9.1,4.9z"/>
		<path class="st0" d="M9.9,26.1c-0.1,0-0.2,0-0.3-0.1c-0.3-0.1-0.5-0.4-0.5-0.8c0,0,0,0,0-0.1c0-3,0-6.1,0-9.1c0,0,0-0.1,0-0.1
			c1.2,0,2.5,0,3.7,0c0,0,0,0.1,0,0.1c0,3,0,6.1,0,9.1c0,0.2,0,0.5-0.2,0.7C12.4,26,12.2,26,12,26.1c0,0,0,0-0.1,0
			C11.3,26.1,10.6,26.1,9.9,26.1z"/>
		<path class="st0" d="M9.1,4.9C9.1,4.8,9.1,4.8,9.1,4.9c0-0.7,0-1.3,0-1.9c0-0.5,0.4-0.9,0.9-0.9c0.6,0,1.3,0,1.9,0
			c0.5,0,0.9,0.4,0.9,0.9c0,0.6,0,1.2,0,1.8c0,0,0,0.1,0,0.1c0,0,0.1,0,0.1,0c2.1,0,4.2,0,6.2,0c0.3,0,0.5,0.1,0.8,0.3
			c1.8,1.4,3.6,2.7,5.4,4.1c0.4,0.3,0.5,0.9,0.2,1.3c0,0.1-0.1,0.1-0.2,0.2c-1.4,1.1-2.8,2.1-4.2,3.2c-0.4,0.3-0.9,0.7-1.3,1
			c-0.2,0.1-0.4,0.2-0.6,0.2c0,0,0,0-0.1,0c-5.5,0-11,0-16.4,0c-0.2,0-0.4,0-0.6-0.1c-0.3-0.2-0.4-0.4-0.4-0.7c0,0,0-0.1,0-0.1
			c0-2.7,0-5.5,0-8.2c0-0.2,0-0.5,0.2-0.7C2.1,5,2.3,4.9,2.6,4.9c0.3,0,0.7,0,1,0c1.8,0,3.6,0,5.4,0C9,4.9,9,4.9,9.1,4.9z"/>
	</g>
</g>
<g id="business" class="st1">
	<path class="st2" d="M11.9,6.3c-0.4-1-0.8-2-1.1-3.1l0,0L10.8,3c0.3-0.3,0.9-0.5,1.3-0.6C14,2,17.2,2.2,18.2,3L17,5.6
		c0.7-0.8,0.9-1.1,1.3-1.5c0.2,0.1,0.3,0.2,0.5,0.3c0.4,0.3,0.7,0.6,0.8,1c0,0.3-0.1,0.6-0.3,0.8l-3,2.9c-0.4-0.1-0.8-0.1-1.1-0.2
		c0.2-0.3,0.4-0.7,0.5-1l-1.1,1c-1.1-0.2-2-0.1-2.9,0.3l-3-3C8.6,5.9,8.5,5.8,8.5,5.6c0-0.5,0.5-0.9,1-1.1l0,0
		c0.4-0.2,0.7-0.4,1-0.5L11.9,6.3L11.9,6.3z M15,17.1c0-0.2-0.1-0.3-0.2-0.4c-0.1-0.1-0.2-0.1-0.4-0.1v1l0.3,0.1
		c0.3,0,0.5,0.1,0.7,0.2c0.2,0.1,0.4,0.2,0.5,0.3c0.1,0.1,0.3,0.2,0.3,0.4c0.1,0.1,0.1,0.3,0.1,0.5c0,0.3-0.1,0.5-0.3,0.8
		c-0.2,0.2-0.4,0.4-0.7,0.5c-0.3,0.1-0.6,0.1-1,0.2v0.5h-0.4v-0.5c-0.4,0-0.7-0.1-1-0.2c-0.3-0.1-0.6-0.3-0.8-0.5
		c-0.2-0.2-0.3-0.5-0.3-0.9h1.3c0,0.1,0.1,0.3,0.1,0.4c0.1,0.1,0.2,0.2,0.3,0.2c0.1,0,0.2,0.1,0.3,0.1v-1l-0.4-0.1
		c-0.5-0.1-0.9-0.2-1.1-0.4c-0.3-0.2-0.4-0.5-0.4-0.8c0-0.3,0.1-0.5,0.3-0.8c0.2-0.2,0.4-0.4,0.8-0.5c0.3-0.1,0.6-0.2,0.9-0.2v-0.5
		h0.4v0.5c0.3,0,0.6,0.1,0.9,0.2c0.3,0.1,0.6,0.3,0.7,0.5c0.2,0.2,0.3,0.5,0.3,0.8L15,17.1L15,17.1z M13.9,16.6c-0.1,0-0.1,0-0.2,0
		c-0.1,0-0.2,0.1-0.3,0.2c-0.1,0.1-0.1,0.1-0.1,0.2c0,0.1,0,0.1,0.1,0.2c0,0.1,0.1,0.1,0.2,0.1c0.1,0,0.2,0.1,0.3,0.1
		c0,0,0.1,0,0.1,0V16.6z M14.3,19.4c0.1,0,0.2,0,0.2,0c0.1,0,0.2-0.1,0.3-0.2c0.1-0.1,0.1-0.2,0.1-0.2c0-0.1,0-0.2-0.1-0.2
		c-0.1-0.1-0.2-0.1-0.3-0.2c-0.1,0-0.2-0.1-0.2-0.1V19.4L14.3,19.4z M9.1,15.9c1.4-2.2,4.7-3.1,7.4-1.9c2.7,1.2,3.7,4,2.3,6.2
		c-1.4,2.2-4.7,3.1-7.4,1.9C8.7,20.9,7.7,18.2,9.1,15.9L9.1,15.9z M15.8,11.8l-0.6-2.2c2.5,0.4,6.5,4.7,7.8,6.6
		c0.7,1,1.2,2.1,1.7,3.3c0.9,3,0,5.7-3.8,6.4c-2.4,0.4-6.9,0.4-9.4,0.3c-2.7-0.1-6.9-0.1-8-2.4C1.8,19.9,5,15.4,8,12.7
		c0.4-0.4,0.8-0.7,1.2-1c0.8-0.6,1.6-1.2,2.5-1.7l0,0c0.3-0.2,0.7-0.3,1-0.4l0,0l0.1,0l-1.3,2.1L13,9.9l0.4-0.5h1l0.6,1L15.8,11.8
		L15.8,11.8z"/>
</g>
<g id="follow" class="st1">
	<path class="st3" d="M13.7,2.1c3.3,0,6.3,1.3,8.5,3.5c2.2,2.2,3.5,5.2,3.5,8.5s-1.3,6.3-3.5,8.5c-2.2,2.2-5.2,3.5-8.5,3.5
		s-6.3-1.3-8.5-3.5c-2.2-2.2-3.5-5.2-3.5-8.5s1.3-6.3,3.5-8.5C7.4,3.4,10.4,2.1,13.7,2.1z"/>
	<path class="st4" d="M12.7,8.2h2c0.5,0,0.9,0.4,0.9,0.9v3.2h3.2c0.5,0,0.9,0.4,0.9,0.9v2c0,0.5-0.4,0.9-0.9,0.9h-3.2v3.2
		c0,0.5-0.4,0.9-0.9,0.9h-2c-0.5,0-0.9-0.4-0.9-0.9V16H8.7c-0.5,0-0.9-0.4-0.9-0.9v-2c0-0.5,0.4-0.9,0.9-0.9h3.2V9.1
		C11.9,8.6,12.3,8.2,12.7,8.2L12.7,8.2z"/>
</g>
<g id="school" class="st1">
	<g class="st5">
		<path class="st6" d="M14.3,3c2-1.2,2.2,1.1,4.2-0.3V5c-1.9,1.4-2.3-0.9-4.2,0.3L14.3,3L14.3,3z M25.7,26.4V12.7h-6.3V9.4L14,6.5V3
			h0c0.1-0.1,0.2-0.2,0.2-0.3c0-0.2-0.2-0.3-0.4-0.3c-0.2,0-0.4,0.1-0.4,0.3c0,0.1,0.1,0.2,0.2,0.3h0v3.6L8.1,9.4v3.3H1.7v13.6
			C9.7,26.4,17.7,26.4,25.7,26.4L25.7,26.4z M13.3,10.7c0-0.1,0.1-0.3,0.3-0.3c0.2,0,0.3,0.1,0.3,0.3v1h0.9c0.2,0,0.3,0.1,0.3,0.3
			c0,0.1-0.1,0.3-0.3,0.3h-1.2c-0.2,0-0.3-0.1-0.3-0.3V10.7L13.3,10.7z M13.7,9.9c1.2,0,2.1,0.8,2.1,1.7s-1,1.7-2.1,1.7
			s-2.1-0.8-2.1-1.7C11.6,10.7,12.6,9.9,13.7,9.9L13.7,9.9z M10.5,16.5H17v1h-6.5V16.5L10.5,16.5z M10.5,18.8H17v1h-6.5V18.8
			L10.5,18.8z M10.5,21H17v1h-6.5V21L10.5,21z M10.5,23.2H17v1h-6.5V23.2L10.5,23.2z M4.3,16.5h3.2v1H4.3V16.5L4.3,16.5z M20,16.5
			h3.2v1H20V16.5L20,16.5z M4.3,18.8h3.2v1H4.3V18.8L4.3,18.8z M20,18.8h3.2v1H20V18.8L20,18.8z M4.3,21h3.2v1H4.3V21L4.3,21z
			 M20,21h3.2v1H20V21L20,21z M4.3,23.2h3.2v1H4.3V23.2L4.3,23.2z M20,23.2h3.2v1H20V23.2L20,23.2z"/>
	</g>
</g>
<g id="name" class="st1">
	<path class="st2" d="M12.6,21.1l-4.9,4.7c-0.3,0.3-0.8,0.3-1.1,0.1c-0.2-0.1-0.3-0.4-0.3-0.6v-4.2H3.7c-1.1,0-2-0.9-2-2V4
		c0-1.1,0.9-2,2-2h20c1.1,0,2,0.9,2,2v15.1c0,1.1-0.9,2-2,2H12.6z M7.2,9.2c-0.4,0-0.8-0.4-0.7-0.8c0-0.4,0.3-0.7,0.7-0.7h13.2
		c0.4,0,0.8,0.3,0.8,0.7c0,0.4-0.3,0.8-0.7,0.8c0,0-0.1,0-0.1,0H7.2z M7.2,14.2c-0.4,0-0.8-0.4-0.7-0.8c0-0.4,0.3-0.7,0.7-0.7h10.7
		c0.4,0,0.8,0.4,0.7,0.8c0,0.4-0.3,0.7-0.7,0.7H7.2z"/>
</g>
<g id="toponyma" class="st1">
	<path class="st3" d="M19.6,6.6c-0.1-0.1-2.4-3.1-2.4-3.1c0-0.1-0.2-0.7-0.6-0.6c-0.4,0.2-0.3,0.4,0.1,0.7c0.4,0.2,2.1,3.5,2.1,3.5
		c0.1,0.1,0.8,0.7,1.1,0.1c0-0.1,0-0.2,0-0.2L19.6,6.6z"/>
	<path class="st3" d="M21.5,6.3c0-0.1,0.9-3.5,1-3.5c0-0.1-0.1-0.7,0.3-0.7c0.5,0,0.4,0.3,0.2,0.6c-0.3,0.4-0.5,3.7-0.5,3.7
		c-0.1,0.2-0.4,0.9-1,0.5c-0.1,0-0.1-0.1-0.1-0.2L21.5,6.3z"/>
	<path class="st3" d="M22.7,6.8c-0.1-0.1-1.4,1.1-4.1,0.8c-0.4,0-0.7,0.3-0.7,0.7c0,0,0,0,0,0.1c0,1.1-0.1,3-0.9,4
		c-1.2,1.5,4.5,4.3,7.5,1.3c0.1-0.1,0.2-0.2,0.2-0.4C24.8,12.5,25.8,9.7,22.7,6.8z"/>
	<path class="st3" d="M23.8,15c-0.9,0.8-3.7,2.4-7.1-0.9c-0.1-0.1-0.2-0.1-0.3,0c-0.4,0.5-1.5,2-3,2.4c-0.1,0-0.1,0.1-0.1,0.2
		c0,0.8,0.5,4.4,5.2,7c0.1,0,0.2,0.1,0.3,0c0.8-0.2,4.5-1.4,5.4-8.4c0-0.1-0.1-0.3-0.2-0.3C23.9,14.9,23.9,14.9,23.8,15z"/>
	<path class="st3" d="M18.1,24.7c-0.3,0.2-1.2,0.7-2.3,0.6c-0.1,0-0.1,0-0.2-0.1c-0.7-0.4-5.3-3.3-5.5-8.1c0,0,0-0.1,0.1-0.1l0,0
		c0.3,0,1.4,0.1,2.2-0.1c0.1,0,0.3,0.1,0.3,0.2c0.3,1.3,0.4,4.3,5.5,7.3C18.1,24.5,18.2,24.6,18.1,24.7
		C18.2,24.7,18.1,24.7,18.1,24.7z"/>
	<path class="st3" d="M14.1,25.8c-0.4,0.1-1.1,0.2-2.1-0.2l0,0c-0.2,0-5-1.1-4.6-6.9c0-0.1,0.1-0.2,0.1-0.2c0.3-0.1,1.2-0.3,1.9-0.9
		c0.1-0.1,0.2,0,0.3,0.1c0,0.1,0,0.1,0,0.2c-0.2,1.4,0.1,4.4,4.4,7.5C14.2,25.6,14.2,25.7,14.1,25.8C14.2,25.8,14.2,25.8,14.1,25.8z
		"/>
	<path class="st3" d="M10.2,25.8c-1.1-0.6-3.3-2.3-3.6-6.1c0-0.3-0.2-0.5-0.4-0.4c0,0-0.1,0-0.1,0c-0.5,0.3-1,0.4-1.5,0.5
		c0,0-0.3,6.1,5.5,6.3c0.1,0,0.1,0,0.1-0.1C10.3,25.9,10.2,25.9,10.2,25.8z"/>
	<path class="st3" d="M5.2,24.2c-0.4-0.5-1-1.5-1.1-2.7c0-0.2-0.2-0.4-0.4-0.3c0,0-0.1,0-0.1,0.1c-0.1,0.1-0.1,0.2-0.2,0.3
		c0,0,0,0.1-0.1,0.1c-0.1,0-0.6,0.1-0.5,0.6c0,0.5,1,1.5,2.3,2.2c0,0,0.1,0,0.1-0.1C5.2,24.3,5.2,24.3,5.2,24.2z"/>
	<path class="st3" d="M16.2,13.3c-0.4,0.5-2.9,3.4-7.4,3.3c-0.1,0-0.2-0.1-0.2-0.2c0-0.8-0.1-1.5-0.3-2.3c0-0.1,0-0.2,0.1-0.3
		c0,0,0.1,0,0.1,0c1.1,0.2,4.4,0.5,7-3.1c0.1-0.1,0.2-0.1,0.3,0c0,0,0.1,0.1,0.1,0.1c0.2,0.6,0.5,1.7,0.5,2.4
		C16.3,13.3,16.3,13.3,16.2,13.3z"/>
	<path class="st3" d="M15,9.5c-0.5,0.9-2.5,3.9-6.8,3.8c-0.2,0-0.3-0.1-0.4-0.3c-0.2-0.6-0.6-1.1-1-1.5c-0.1-0.1-0.2-0.3-0.1-0.5
		c0.4-0.9,1.8-3.1,6.6-3.9c0.1,0,0.2,0,0.3,0.1c0.3,0.3,1,1,1.4,1.8C15.1,9.1,15.1,9.3,15,9.5z"/>
	<path class="st3" d="M12,6.3c-1.2,0.4-5,1.8-6,4.1c-0.1,0.2-0.3,0.3-0.5,0.2c-0.5-0.2-1.4-0.4-2.1-0.5c-0.1,0-0.2-0.1-0.2-0.2
		c0,0,0-0.1,0-0.1C3.8,8.4,6.1,3.3,12,6C12.1,6,12.1,6.1,12,6.3C12.1,6.3,12,6.3,12,6.3z"/>
	<path class="st3" d="M7.9,17.1c-0.3,0.4-1.4,2-3.4,1.7c-0.2,0-0.3-0.2-0.3-0.4c0-0.5,0-1.3-0.5-2.3c-0.1-0.2,0-0.3,0.1-0.5
		c0.9-0.9,2.1-1.5,3.3-1.7c0.2,0,0.3,0.1,0.4,0.3C7.8,15,8,15.9,8,16.9C8,16.9,8,17,7.9,17.1z"/>
	<path class="st3" d="M6.8,12.9c-0.6,0.1-2.1,0.4-3.6,2c-0.1,0.1-0.3,0.2-0.5,0.1c-0.3-0.2-0.9-0.6-1.5-0.7c-0.2,0-0.3-0.2-0.3-0.4
		v0c0.1-0.7,0.5-2.2,2.1-2.9c0.1,0,0.1,0,0.2,0c0.5,0.1,2.3,0.4,3.5,1.7C6.9,12.7,6.9,12.8,6.8,12.9C6.9,12.9,6.8,12.9,6.8,12.9z"/>
	<path class="st3" d="M3,18.7c-0.8,0-2-0.4-2.1-2.5c0-0.5,0.3-1,0.7-1c0.7-0.1,1.6,0.2,2.1,2c0.2,0.6-0.1,1.2-0.5,1.4
		C3.2,18.7,3.1,18.7,3,18.7z"/>
</g>
</svg>
